<?xml version="1.0" encoding="utf-8"?>
<!-- Generator: Adobe Illustrator 15.1.0, SVG Export Plug-In . SVG Version: 6.00 Build 0)  -->
<!DOCTYPE svg PUBLIC "-//W3C//DTD SVG 1.1//EN" "http://www.w3.org/Graphics/SVG/1.1/DTD/svg11.dtd">
<svg version="1.1" xmlns="http://www.w3.org/2000/svg" xmlns:xlink="http://www.w3.org/1999/xlink" x="0px" y="0px" width="302px"
	 height="183px" viewBox="0 0 302 183" enable-background="new 0 0 302 183" xml:space="preserve">
<g id="Layer_3">
</g>
<g id="Layer_4">
	<linearGradient id="SVGID_1_" gradientUnits="userSpaceOnUse" x1="151.4995" y1="10.4155" x2="151.4995" y2="149.5902">
		<stop  offset="0" style="stop-color:#262223"/>
		<stop  offset="1" style="stop-color:#57585A"/>
	</linearGradient>
	<rect x="1" fill="url(#SVGID_1_)" width="301" height="159"/>
</g>
<g id="Layer_5">
	<rect x="1" y="159" width="301" height="23"/>
</g>
<g id="Layer_3_copy">
</g>
<g id="Layer_2" display="none">
	<circle display="inline" fill="#222222" cx="151.75" cy="69.75" r="74.75"/>
</g>
<g id="Layer_6" display="none">
	<circle display="inline" fill="#222222" cx="151.75" cy="69.75" r="74.75"/>
</g>
<g id="Layer_8">
	<path fill="#3399CC" d="M216.118,72.75c0,19.804-8.943,37.519-23.012,49.325c-11.186,9.389-25.611,15.043-41.356,15.043
		c-2.144,0-4.262-0.105-6.352-0.311c-32.567-3.188-58.016-30.651-58.016-64.058c0-1.954,0.087-3.888,0.258-5.797
		c2.931-32.833,30.515-58.571,64.11-58.571C187.3,8.382,216.118,37.201,216.118,72.75z"/>
</g>
<g id="Layer_9">
	<path fill="#EE8310" d="M152,8.382c-34,0-61.179,25.737-64.11,58.571L152,72.965V8.382z"/>
</g>
<g id="Layer_10">
	<path fill="#6600CC" d="M193.106,122.075c-11.186,9.389-25.611,15.043-41.356,15.043c-2.144,0-4.262-0.105-6.352-0.311
		l6.567-63.842L193.106,122.075z"/>
</g>
<g id="Layer_11">
	<path fill="#BE1E2D" d="M151.104,8.382c36.167,0,64.691,28.819,64.691,64.368c0,19.804-9.104,37.519-23.173,49.325L151.75,72.75
		L151.104,8.382z"/>
</g>
<g id="Layer_7">
	<circle fill="none" stroke="#FFFFFF" stroke-miterlimit="10" cx="151.75" cy="72.75" r="64.368"/>
</g>
<g id="Layer_1">
	<g>
		<path fill="#CCCCCC" d="M94.422,143.845l2.922,8.418h-1.816l-0.605-1.816h-3.33l-0.629,1.816h-1.723l3.039-8.418H94.422z
			 M94.469,149.084l-1.164-3.586l-1.246,3.586H94.469z"/>
		<path fill="#CCCCCC" d="M102.901,146.593c-0.035-0.291-0.14-1.479-1.362-1.479c-1.339,0-1.898,1.397-1.898,3.132
			c0,0.501,0,2.888,1.758,2.888c0.757,0,1.479-0.478,1.513-1.596h1.898c-0.035,0.501-0.082,1.281-0.757,1.979
			c-0.745,0.769-1.688,0.943-2.457,0.943c-2.899,0-3.842-2.143-3.842-4.227c0-2.666,1.49-4.436,3.854-4.436
			c1.839,0,3.132,1.117,3.132,2.794H102.901z"/>
		<path fill="#CCCCCC" d="M110.364,143.845l2.922,8.418h-1.816l-0.605-1.816h-3.33l-0.629,1.816h-1.723l3.039-8.418H110.364z
			 M110.41,149.084l-1.164-3.586L108,149.084H110.41z"/>
		<path fill="#CCCCCC" d="M118.77,143.845l2.922,8.418h-1.816l-0.605-1.816h-3.33l-0.629,1.816h-1.723l3.039-8.418H118.77z
			 M118.816,149.084l-1.164-3.586l-1.246,3.586H118.816z"/>
		<path fill="#CCCCCC" d="M122.774,143.845h2.608l3.155,6.625v-6.625h1.677v8.418h-2.48l-3.26-6.985v6.985h-1.7V143.845z"/>
		<path fill="#CCCCCC" d="M136.478,149.573c0,0.396-0.023,1.595,1.525,1.595c0.978,0,1.595-0.466,1.595-1.176
			c0-0.745-0.524-0.873-1.595-1.129c-2.002-0.501-3.097-1.095-3.097-2.55c0-1.386,0.99-2.608,3.33-2.608
			c0.874,0,1.91,0.198,2.538,0.99c0.478,0.605,0.478,1.28,0.478,1.56h-1.735c-0.023-0.291-0.116-1.28-1.362-1.28
			c-0.838,0-1.385,0.454-1.385,1.141c0,0.78,0.617,0.92,1.828,1.223c1.456,0.35,2.888,0.745,2.888,2.387
			c0,1.514-1.257,2.736-3.586,2.736c-3.225,0-3.249-2.072-3.26-2.888H136.478z"/>
		<path fill="#CCCCCC" d="M144.441,146.383v3.505c0,0.513,0,1.292,0.92,1.292c1.106,0,1.106-0.826,1.106-1.827v-2.97h1.77v3.877
			c0.023,1.27,0.035,1.421,0.035,1.572c0.012,0.163,0.023,0.268,0.046,0.431h-1.676l-0.059-0.78
			c-0.174,0.257-0.617,0.932-1.734,0.932c-0.792,0-1.444-0.361-1.77-0.792c-0.384-0.478-0.384-1.292-0.384-1.583v-3.656H144.441z"/>
		<path fill="#CCCCCC" d="M149.809,143.856h1.839v1.502h-1.839V143.856z M149.867,146.372h1.723v5.891h-1.723V146.372z"/>
		<path fill="#CCCCCC" d="M156.562,152.182c-0.56,0.151-1.06,0.186-1.339,0.186c-1.735,0-1.735-1.094-1.735-1.583v-3.225h-1.129
			v-1.142h1.129v-1.152l1.712-0.629v1.781h1.396v1.142h-1.396v2.654c0.012,0.535,0.012,0.873,0.78,0.873
			c0.256,0,0.372-0.012,0.582-0.035V152.182z"/>
		<path fill="#CCCCCC" d="M162.359,149.573c0,0.396-0.023,1.595,1.525,1.595c0.978,0,1.595-0.466,1.595-1.176
			c0-0.745-0.524-0.873-1.595-1.129c-2.003-0.501-3.098-1.095-3.098-2.55c0-1.386,0.99-2.608,3.33-2.608
			c0.873,0,1.909,0.198,2.538,0.99c0.478,0.605,0.478,1.28,0.478,1.56h-1.734c-0.023-0.291-0.117-1.28-1.362-1.28
			c-0.839,0-1.386,0.454-1.386,1.141c0,0.78,0.617,0.92,1.828,1.223c1.455,0.35,2.887,0.745,2.887,2.387
			c0,1.514-1.257,2.736-3.586,2.736c-3.225,0-3.248-2.072-3.26-2.888H162.359z"/>
		<path fill="#CCCCCC" d="M172.093,152.182c-0.56,0.151-1.06,0.186-1.339,0.186c-1.735,0-1.735-1.094-1.735-1.583v-3.225h-1.129
			v-1.142h1.129v-1.152l1.712-0.629v1.781h1.396v1.142h-1.396v2.654c0.012,0.535,0.012,0.873,0.78,0.873
			c0.256,0,0.372-0.012,0.582-0.035V152.182z"/>
		<path fill="#CCCCCC" d="M176.69,152.263c-0.058-0.361-0.058-0.629-0.058-0.804c-0.652,0.943-1.433,0.943-1.759,0.943
			c-0.85,0-1.233-0.244-1.467-0.466c-0.349-0.349-0.512-0.826-0.512-1.292s0.163-1.327,1.245-1.828
			c0.723-0.326,1.759-0.326,2.329-0.326c0-0.384-0.012-0.57-0.082-0.779c-0.151-0.432-0.605-0.489-0.769-0.489
			c-0.244,0-0.5,0.104-0.651,0.326c-0.128,0.197-0.128,0.384-0.128,0.523h-1.688c0.012-0.314,0.047-0.943,0.664-1.386
			c0.535-0.384,1.222-0.477,1.781-0.477c0.488,0,1.513,0.081,2.096,0.757c0.396,0.477,0.407,1.176,0.407,1.443l0.012,2.363
			c0,0.501,0.034,1.001,0.14,1.49H176.69z M174.571,150.446c0,0.396,0.269,0.839,0.839,0.839c0.314,0,0.57-0.151,0.733-0.338
			c0.303-0.373,0.326-0.827,0.326-1.455C175.363,149.398,174.571,149.748,174.571,150.446z"/>
		<path fill="#CCCCCC" d="M183.095,152.182c-0.56,0.151-1.06,0.186-1.339,0.186c-1.735,0-1.735-1.094-1.735-1.583v-3.225h-1.129
			v-1.142h1.129v-1.152l1.712-0.629v1.781h1.396v1.142h-1.396v2.654c0.012,0.535,0.012,0.873,0.78,0.873
			c0.256,0,0.372-0.012,0.582-0.035V152.182z"/>
		<path fill="#CCCCCC" d="M184.107,143.856h1.84v1.502h-1.84V143.856z M184.166,146.372h1.723v5.891h-1.723V146.372z"/>
		<path fill="#CCCCCC" d="M188.602,150.562c0.023,0.373,0.256,0.804,0.978,0.804c0.617,0,0.908-0.35,0.908-0.698
			c0-0.268-0.14-0.478-0.814-0.664l-1.071-0.291c-0.478-0.14-1.49-0.431-1.49-1.63c0-1.141,1.048-1.84,2.573-1.84
			c1.21,0,2.188,0.56,2.235,1.735h-1.572c-0.047-0.652-0.57-0.699-0.838-0.699c-0.466,0-0.815,0.222-0.815,0.583
			c0,0.396,0.291,0.477,0.804,0.616l1.06,0.291c1.071,0.291,1.571,0.839,1.571,1.642c0,1.014-0.873,2.026-2.701,2.026
			c-0.757,0-1.479-0.163-2.014-0.722c-0.385-0.408-0.419-0.873-0.431-1.153H188.602z"/>
		<path fill="#CCCCCC" d="M196.682,152.182c-0.56,0.151-1.06,0.186-1.339,0.186c-1.735,0-1.735-1.094-1.735-1.583v-3.225h-1.129
			v-1.142h1.129v-1.152l1.712-0.629v1.781h1.396v1.142h-1.396v2.654c0.012,0.535,0.012,0.873,0.78,0.873
			c0.256,0,0.372-0.012,0.582-0.035V152.182z"/>
		<path fill="#CCCCCC" d="M197.694,143.856h1.84v1.502h-1.84V143.856z M197.753,146.372h1.723v5.891h-1.723V146.372z"/>
		<path fill="#CCCCCC" d="M204.098,148.467c-0.023-0.209-0.093-1.082-0.757-1.082c-0.814,0-0.908,1.233-0.908,1.874
			c0,0.326,0.035,1.374,0.431,1.805c0.163,0.175,0.338,0.198,0.466,0.198c0.187,0,0.722-0.082,0.792-1.13h1.699
			c-0.022,0.454-0.081,1.164-0.756,1.735c-0.42,0.36-0.943,0.547-1.677,0.547c-0.78,0-1.467-0.175-2.003-0.78
			c-0.512-0.594-0.745-1.374-0.745-2.316c0-2.678,1.968-3.051,2.748-3.051c1.094,0,2.387,0.605,2.398,2.2H204.098z"/>
		<path fill="#CCCCCC" d="M208.01,150.562c0.023,0.373,0.256,0.804,0.978,0.804c0.617,0,0.908-0.35,0.908-0.698
			c0-0.268-0.14-0.478-0.814-0.664l-1.071-0.291c-0.478-0.14-1.49-0.431-1.49-1.63c0-1.141,1.048-1.84,2.573-1.84
			c1.21,0,2.188,0.56,2.235,1.735h-1.572c-0.047-0.652-0.57-0.699-0.838-0.699c-0.466,0-0.815,0.222-0.815,0.583
			c0,0.396,0.291,0.477,0.804,0.616l1.06,0.291c1.071,0.291,1.571,0.839,1.571,1.642c0,1.014-0.873,2.026-2.701,2.026
			c-0.757,0-1.479-0.163-2.014-0.722c-0.385-0.408-0.419-0.873-0.431-1.153H208.01z"/>
	</g>
	<g>
		<path fill="#FFFFFF" d="M109.698,50.824l2.353-2.145c0.416-0.377,0.884-0.793,1.365-1.378c0.507-0.611,0.624-0.897,0.624-1.313
			c0-0.689-0.403-1.157-1.079-1.157c-1.04,0-1.131,1.066-1.144,1.326h-1.989c0-0.364,0-1.04,0.533-1.703
			c0.52-0.65,1.482-0.988,2.587-0.988c1.976,0,3.068,1.066,3.068,2.47c0,0.936-0.364,2.145-4.29,5.304
			c1.313-0.026,1.469-0.039,2.496-0.052c1.391-0.026,1.547-0.026,1.846-0.039v1.508h-6.37V50.824z"/>
		<path fill="#FFFFFF" d="M118.863,50.187c0.013,0.286,0.091,1.209,1.17,1.209c0.728,0,1.17-0.533,1.17-1.235
			c0-1.339-1.287-1.339-2.236-1.339V47.3c0.91-0.026,2.249-0.052,2.249-1.352c0-0.715-0.533-1.079-1.118-1.079
			c-0.559,0-1.105,0.377-1.105,1.131h-1.989c0.039-0.403,0.078-0.975,0.533-1.534c0.598-0.728,1.56-1.001,2.522-1.001
			c2.314,0,3.055,1.482,3.055,2.47c0,1.521-1.339,1.937-1.742,2.054c0.286,0.091,0.663,0.208,1.079,0.559
			c0.637,0.533,0.741,1.196,0.741,1.625c0,1.534-1.404,2.678-3.289,2.678c-0.65,0-1.599-0.143-2.184-0.611
			c-0.806-0.663-0.832-1.69-0.832-2.054H118.863z"/>
		<path fill="#FFFFFF" d="M124.791,50.928h1.651v1.729h-1.651V50.928z"/>
		<path fill="#FFFFFF" d="M129.77,50.42c-0.013,0.208,0.156,1.014,1.066,1.014c0.702,0,1.339-0.507,1.339-1.703
			c0-0.871-0.338-1.625-1.209-1.625s-1.092,0.702-1.157,0.91l-1.885-0.052l0.208-5.369h5.499v1.482h-3.783l-0.117,2.249
			c0.286-0.247,0.715-0.65,1.716-0.65c1.456,0,2.678,1.066,2.678,2.886c0,1.547-0.91,3.289-3.237,3.289
			c-0.949,0-1.911-0.247-2.535-0.988c-0.455-0.546-0.494-1.105-0.507-1.443H129.77z"/>
		<path fill="#FFFFFF" d="M137.492,42.75c1.807,0,2.119,1.157,2.119,2.379c0,0.65,0,2.6-2.21,2.6c-1.534,0-2.08-1.066-2.08-2.47
			C135.32,44.583,135.333,42.75,137.492,42.75z M137.439,46.664c0.442,0,0.754-0.286,0.754-1.521c0-0.533-0.039-1.378-0.702-1.378
			c-0.767,0-0.767,1.053-0.767,1.443C136.725,46.208,136.894,46.664,137.439,46.664z M143.355,42.659l-4.94,10.154h-0.975
			l4.94-10.154H143.355z M143.472,47.794c1.794,0,2.119,1.157,2.119,2.366c0,0.663,0,2.613-2.223,2.613
			c-1.534,0-2.067-1.079-2.067-2.483C141.301,49.627,141.301,47.794,143.472,47.794z M143.42,51.708
			c0.442,0,0.754-0.286,0.754-1.521c0-0.533-0.052-1.378-0.715-1.378c-0.767,0-0.767,1.04-0.767,1.443
			C142.692,51.24,142.861,51.708,143.42,51.708z"/>
	</g>
	<g>
		<path fill="#FFFFFF" d="M166.929,67.344c0.013,0.286,0.091,1.209,1.17,1.209c0.728,0,1.17-0.533,1.17-1.235
			c0-1.339-1.287-1.339-2.235-1.339v-1.521c0.91-0.026,2.248-0.052,2.248-1.352c0-0.715-0.533-1.079-1.117-1.079
			c-0.56,0-1.105,0.377-1.105,1.131h-1.989c0.039-0.403,0.078-0.975,0.533-1.534c0.599-0.728,1.56-1.001,2.522-1.001
			c2.314,0,3.055,1.482,3.055,2.47c0,1.521-1.339,1.937-1.742,2.054c0.286,0.091,0.663,0.208,1.079,0.559
			c0.638,0.533,0.741,1.196,0.741,1.625c0,1.534-1.404,2.678-3.289,2.678c-0.65,0-1.6-0.143-2.184-0.611
			c-0.807-0.663-0.832-1.69-0.832-2.054H166.929z"/>
		<path fill="#FFFFFF" d="M172.44,63.119c0-1.105,0.923-2.535,3.134-2.535c1.819,0,3.08,1.04,3.08,2.457
			c0,1.092-0.857,1.846-1.781,1.989c0.365,0.104,0.976,0.26,1.457,0.936c0.312,0.442,0.416,0.91,0.416,1.352
			c0,1.664-1.547,2.639-3.328,2.639c-1.846,0-3.121-1.183-3.121-2.639c0-0.702,0.273-1.209,0.664-1.586
			c0.441-0.429,0.857-0.559,1.195-0.676C173.701,64.913,172.44,64.523,172.44,63.119z M176.834,67.188
			c0-0.819-0.61-1.313-1.299-1.313c-0.754,0-1.301,0.572-1.301,1.339c0,0.923,0.689,1.352,1.313,1.352
			C176.094,68.566,176.834,68.202,176.834,67.188z M176.77,63.145c0-0.741-0.598-1.131-1.209-1.131c-0.65,0-1.184,0.442-1.184,1.131
			c0,0.637,0.455,1.17,1.171,1.17C176.211,64.315,176.77,63.873,176.77,63.145z"/>
		<path fill="#FFFFFF" d="M180.084,68.085h1.652v1.729h-1.652V68.085z"/>
		<path fill="#FFFFFF" d="M183.282,63.119c0-1.105,0.923-2.535,3.134-2.535c1.819,0,3.08,1.04,3.08,2.457
			c0,1.092-0.857,1.846-1.781,1.989c0.365,0.104,0.976,0.26,1.457,0.936c0.312,0.442,0.416,0.91,0.416,1.352
			c0,1.664-1.547,2.639-3.328,2.639c-1.846,0-3.121-1.183-3.121-2.639c0-0.702,0.273-1.209,0.664-1.586
			c0.441-0.429,0.857-0.559,1.195-0.676C184.543,64.913,183.282,64.523,183.282,63.119z M187.676,67.188
			c0-0.819-0.61-1.313-1.299-1.313c-0.754,0-1.301,0.572-1.301,1.339c0,0.923,0.689,1.352,1.313,1.352
			C186.936,68.566,187.676,68.202,187.676,67.188z M187.611,63.145c0-0.741-0.598-1.131-1.209-1.131
			c-0.65,0-1.184,0.442-1.184,1.131c0,0.637,0.455,1.17,1.171,1.17C187.053,64.315,187.611,63.873,187.611,63.145z"/>
		<path fill="#FFFFFF" d="M192.291,67.578c-0.013,0.208,0.156,1.014,1.066,1.014c0.702,0,1.34-0.507,1.34-1.703
			c0-0.871-0.339-1.625-1.21-1.625c-0.87,0-1.092,0.702-1.157,0.91l-1.885-0.052l0.208-5.369h5.499v1.482h-3.783l-0.117,2.249
			c0.287-0.247,0.715-0.65,1.717-0.65c1.455,0,2.678,1.066,2.678,2.886c0,1.547-0.91,3.289-3.236,3.289
			c-0.949,0-1.912-0.247-2.535-0.988c-0.455-0.546-0.494-1.105-0.508-1.443H192.291z"/>
		<path fill="#FFFFFF" d="M200.014,59.908c1.807,0,2.119,1.157,2.119,2.379c0,0.65,0,2.6-2.211,2.6c-1.533,0-2.08-1.066-2.08-2.47
			C197.842,61.741,197.855,59.908,200.014,59.908z M199.961,63.821c0.442,0,0.754-0.286,0.754-1.521
			c0-0.533-0.039-1.378-0.701-1.378c-0.768,0-0.768,1.053-0.768,1.443C199.246,63.366,199.416,63.821,199.961,63.821z
			 M205.877,59.816l-4.94,10.154h-0.976l4.941-10.154H205.877z M205.994,64.952c1.793,0,2.119,1.157,2.119,2.366
			c0,0.663,0,2.613-2.224,2.613c-1.534,0-2.067-1.079-2.067-2.483C203.822,66.785,203.822,64.952,205.994,64.952z M205.941,68.865
			c0.442,0,0.754-0.286,0.754-1.521c0-0.533-0.052-1.378-0.715-1.378c-0.767,0-0.767,1.04-0.767,1.443
			C205.214,68.397,205.383,68.865,205.941,68.865z"/>
	</g>
	<g>
		<path fill="#FFFFFF" d="M147.745,114.322c0.845-0.363,1.651-0.818,2.405-1.365h1.677v9.074h-1.963v-7.059
			c-0.377,0.285-1.131,0.754-2.119,1.156V114.322z"/>
		<path fill="#FFFFFF" d="M154.063,120.199l2.353-2.146c0.416-0.377,0.885-0.793,1.365-1.378c0.508-0.611,0.624-0.897,0.624-1.313
			c0-0.688-0.403-1.157-1.079-1.157c-1.039,0-1.131,1.066-1.145,1.326h-1.988c0-0.363,0-1.039,0.533-1.703
			c0.52-0.65,1.482-0.988,2.587-0.988c1.976,0,3.067,1.066,3.067,2.471c0,0.936-0.363,2.145-4.289,5.305
			c1.312-0.026,1.469-0.039,2.496-0.053c1.391-0.025,1.547-0.025,1.846-0.039v1.508h-6.37V120.199z"/>
		<path fill="#FFFFFF" d="M161.928,120.303h1.652v1.729h-1.652V120.303z"/>
		<path fill="#FFFFFF" d="M165.126,115.336c0-1.104,0.923-2.535,3.134-2.535c1.819,0,3.08,1.041,3.08,2.457
			c0,1.093-0.857,1.847-1.781,1.99c0.365,0.104,0.976,0.26,1.457,0.936c0.312,0.441,0.416,0.91,0.416,1.352
			c0,1.664-1.547,2.64-3.328,2.64c-1.846,0-3.121-1.183-3.121-2.64c0-0.701,0.273-1.209,0.664-1.586
			c0.441-0.429,0.857-0.559,1.195-0.676C166.387,117.131,165.126,116.74,165.126,115.336z M169.52,119.406
			c0-0.82-0.61-1.313-1.299-1.313c-0.754,0-1.301,0.571-1.301,1.339c0,0.923,0.689,1.352,1.313,1.352
			C168.779,120.783,169.52,120.42,169.52,119.406z M169.455,115.362c0-0.741-0.598-1.131-1.209-1.131
			c-0.65,0-1.184,0.442-1.184,1.131c0,0.638,0.455,1.171,1.171,1.171C168.896,116.533,169.455,116.09,169.455,115.362z"/>
		<path fill="#FFFFFF" d="M172.289,112.971h6.149v1.611l-3.12,7.449h-2.172l3.316-7.553h-4.174V112.971z"/>
		<path fill="#FFFFFF" d="M181.857,112.125c1.807,0,2.119,1.157,2.119,2.379c0,0.65,0,2.601-2.211,2.601
			c-1.533,0-2.08-1.065-2.08-2.47C179.686,113.959,179.699,112.125,181.857,112.125z M181.805,116.039
			c0.442,0,0.754-0.287,0.754-1.521c0-0.533-0.039-1.379-0.701-1.379c-0.768,0-0.768,1.054-0.768,1.443
			C181.09,115.584,181.26,116.039,181.805,116.039z M187.721,112.034l-4.94,10.153h-0.976l4.941-10.153H187.721z M187.838,117.17
			c1.793,0,2.119,1.156,2.119,2.365c0,0.664,0,2.613-2.224,2.613c-1.534,0-2.067-1.078-2.067-2.482
			C185.666,119.002,185.666,117.17,187.838,117.17z M187.785,121.082c0.442,0,0.754-0.285,0.754-1.521
			c0-0.532-0.052-1.378-0.715-1.378c-0.767,0-0.767,1.04-0.767,1.443C187.058,120.615,187.227,121.082,187.785,121.082z"/>
	</g>
	<g>
		<path fill="#FFFFFF" d="M102.757,96.807l2.353-2.146c0.416-0.377,0.884-0.793,1.365-1.378c0.507-0.611,0.624-0.897,0.624-1.313
			c0-0.688-0.403-1.157-1.079-1.157c-1.04,0-1.131,1.066-1.144,1.326h-1.989c0-0.363,0-1.039,0.533-1.703
			c0.52-0.65,1.482-0.988,2.587-0.988c1.976,0,3.068,1.066,3.068,2.471c0,0.936-0.364,2.145-4.29,5.305
			c1.313-0.026,1.469-0.039,2.496-0.053c1.391-0.025,1.547-0.025,1.846-0.039v1.508h-6.37V96.807z"/>
		<path fill="#FFFFFF" d="M109.868,96.663v-1.755l3.64-5.344h1.937l-0.013,5.604h1.235v1.495h-1.235v1.976h-1.924v-1.976H109.868z
			 M111.324,95.207h2.288v-2.393c0-0.117,0.013-0.767,0.026-1L111.324,95.207z"/>
		<path fill="#FFFFFF" d="M117.85,96.91h1.651v1.729h-1.651V96.91z"/>
		<path fill="#FFFFFF" d="M120.982,89.578h6.149v1.611l-3.12,7.449h-2.171l3.315-7.553h-4.173V89.578z"/>
		<path fill="#FFFFFF" d="M128.275,91.943c0-1.104,0.923-2.535,3.133-2.535c1.82,0,3.081,1.041,3.081,2.457
			c0,1.093-0.858,1.847-1.781,1.99c0.364,0.104,0.975,0.26,1.456,0.936c0.312,0.441,0.416,0.91,0.416,1.352
			c0,1.664-1.547,2.64-3.328,2.64c-1.846,0-3.12-1.183-3.12-2.64c0-0.701,0.273-1.209,0.663-1.586
			c0.442-0.429,0.858-0.559,1.196-0.676C129.537,93.738,128.275,93.348,128.275,91.943z M132.67,96.014
			c0-0.82-0.611-1.313-1.3-1.313c-0.754,0-1.3,0.571-1.3,1.339c0,0.923,0.689,1.352,1.313,1.352
			C131.929,97.391,132.67,97.027,132.67,96.014z M132.604,91.97c0-0.741-0.598-1.131-1.209-1.131c-0.65,0-1.183,0.442-1.183,1.131
			c0,0.638,0.455,1.171,1.17,1.171C132.046,93.141,132.604,92.697,132.604,91.97z"/>
		<path fill="#FFFFFF" d="M137.779,88.732c1.807,0,2.119,1.157,2.119,2.379c0,0.65,0,2.601-2.21,2.601
			c-1.534,0-2.08-1.065-2.08-2.47C135.607,90.566,135.621,88.732,137.779,88.732z M137.727,92.646c0.442,0,0.754-0.287,0.754-1.521
			c0-0.533-0.039-1.379-0.702-1.379c-0.767,0-0.767,1.054-0.767,1.443C137.012,92.191,137.181,92.646,137.727,92.646z
			 M143.642,88.642l-4.94,10.153h-0.975l4.94-10.153H143.642z M143.759,93.777c1.794,0,2.119,1.156,2.119,2.365
			c0,0.664,0,2.613-2.223,2.613c-1.534,0-2.067-1.078-2.067-2.482C141.588,95.609,141.588,93.777,143.759,93.777z M143.707,97.689
			c0.442,0,0.754-0.285,0.754-1.521c0-0.532-0.052-1.378-0.715-1.378c-0.767,0-0.767,1.04-0.767,1.443
			C142.979,97.223,143.148,97.689,143.707,97.689z"/>
	</g>
	<g>
		<rect x="13.5" y="164.5" fill="#3399CC" stroke="#CCCCCC" stroke-miterlimit="10" width="12" height="12"/>
		<g>
			<path fill="#FFFFFF" d="M34.601,169.635c-0.03-0.25-0.12-1.27-1.169-1.27c-1.149,0-1.629,1.199-1.629,2.689
				c0,0.43,0,2.479,1.509,2.479c0.649,0,1.269-0.41,1.299-1.369h1.629c-0.03,0.43-0.07,1.1-0.649,1.699
				c-0.64,0.659-1.449,0.809-2.109,0.809c-2.489,0-3.298-1.838-3.298-3.627c0-2.289,1.279-3.809,3.308-3.809
				c1.579,0,2.688,0.959,2.688,2.398H34.601z"/>
			<path fill="#FFFFFF" d="M37.163,167.276h1.479v7.226h-1.479V167.276z"/>
			<path fill="#FFFFFF" d="M41.392,169.455v3.008c0,0.44,0,1.109,0.79,1.109c0.95,0,0.95-0.709,0.95-1.568v-2.549h1.519v3.328
				c0.02,1.09,0.03,1.22,0.03,1.35c0.01,0.14,0.02,0.229,0.04,0.369h-1.439l-0.05-0.669c-0.15,0.22-0.53,0.8-1.489,0.8
				c-0.68,0-1.239-0.311-1.519-0.68c-0.33-0.41-0.33-1.109-0.33-1.359v-3.139H41.392z"/>
			<path fill="#FFFFFF" d="M46.003,167.297h1.479v2.768c0.5-0.659,1.169-0.68,1.43-0.68c1.229,0,2.199,0.97,2.199,2.669
				c0,1.89-1.1,2.549-2.109,2.549c-0.26,0-1.06-0.021-1.52-0.81c-0.01,0.16-0.02,0.399-0.05,0.709h-1.429V167.297z M48.512,170.375
				c-1.089,0-1.089,1.239-1.089,1.559c0,1.149,0.49,1.699,1.159,1.699c1.02,0,1.02-1.27,1.02-1.529
				C49.602,171.704,49.582,170.375,48.512,170.375z"/>
			<path fill="#FFFFFF" d="M53.193,173.043c0.02,0.32,0.22,0.689,0.839,0.689c0.53,0,0.78-0.299,0.78-0.6
				c0-0.229-0.12-0.409-0.7-0.569l-0.919-0.25c-0.41-0.12-1.279-0.37-1.279-1.399c0-0.979,0.899-1.578,2.208-1.578
				c1.04,0,1.879,0.479,1.919,1.488h-1.349c-0.04-0.56-0.49-0.6-0.72-0.6c-0.399,0-0.7,0.189-0.7,0.5c0,0.34,0.25,0.41,0.69,0.529
				l0.91,0.25c0.919,0.25,1.349,0.72,1.349,1.409c0,0.87-0.75,1.739-2.319,1.739c-0.649,0-1.27-0.141-1.729-0.619
				c-0.33-0.35-0.36-0.75-0.37-0.99H53.193z"/>
		</g>
	</g>
	<g>
		<rect x="82.5" y="164.5" fill="#BE1E2D" stroke="#CCCCCC" stroke-miterlimit="10" width="12" height="12"/>
		<g>
			<path fill="#FFFFFF" d="M99.664,167.276h1.549v2.889h2.729v-2.889h1.569v7.226h-1.549v-3.168h-2.749v3.168h-1.549V167.276z"/>
			<path fill="#FFFFFF" d="M108.053,172.354c0,0.33,0,1.35,1.03,1.35c0.37,0,0.739-0.141,0.879-0.699h1.349
				c-0.02,0.239-0.07,0.669-0.479,1.099c-0.37,0.39-1.03,0.59-1.769,0.59c-0.43,0-1.25-0.08-1.779-0.63
				c-0.459-0.479-0.649-1.159-0.649-1.969c0-0.819,0.2-1.799,1.049-2.389c0.39-0.26,0.87-0.42,1.419-0.42
				c0.72,0,1.58,0.279,2.039,1.219c0.34,0.69,0.32,1.43,0.3,1.85H108.053z M109.932,171.424c0-0.229-0.02-1.129-0.879-1.129
				c-0.649,0-0.919,0.539-0.949,1.129H109.932z"/>
			<path fill="#FFFFFF" d="M115.453,174.502c-0.05-0.31-0.05-0.539-0.05-0.689c-0.56,0.811-1.229,0.811-1.509,0.811
				c-0.729,0-1.059-0.211-1.259-0.4c-0.3-0.3-0.439-0.709-0.439-1.109s0.14-1.14,1.069-1.569c0.62-0.28,1.509-0.28,1.999-0.28
				c0-0.329-0.01-0.489-0.07-0.669c-0.13-0.37-0.52-0.42-0.66-0.42c-0.209,0-0.43,0.09-0.56,0.28c-0.11,0.17-0.11,0.33-0.11,0.449
				h-1.449c0.01-0.27,0.04-0.81,0.57-1.189c0.459-0.33,1.049-0.41,1.529-0.41c0.42,0,1.299,0.07,1.799,0.65
				c0.34,0.41,0.35,1.01,0.35,1.239l0.01,2.028c0,0.43,0.03,0.859,0.12,1.279H115.453z M113.633,172.943c0,0.34,0.23,0.72,0.72,0.72
				c0.27,0,0.49-0.13,0.629-0.29c0.26-0.32,0.28-0.709,0.28-1.25C114.313,172.044,113.633,172.344,113.633,172.943z"/>
			<path fill="#FFFFFF" d="M117.984,170.694c0-0.239-0.04-0.97-0.07-1.259h1.389l0.03,0.969c0.19-0.43,0.52-1.039,1.719-0.979v1.328
				c-1.499-0.139-1.589,0.631-1.589,1.26v2.488h-1.479V170.694z"/>
			<path fill="#FFFFFF" d="M124.645,174.433c-0.48,0.13-0.91,0.159-1.149,0.159c-1.489,0-1.489-0.939-1.489-1.359v-2.768h-0.97
				v-0.979h0.97v-0.989l1.469-0.54v1.529h1.199v0.979h-1.199v2.279c0.01,0.459,0.01,0.749,0.669,0.749c0.22,0,0.32-0.011,0.5-0.03
				V174.433z"/>
			<path fill="#FFFFFF" d="M126.596,173.043c0.02,0.32,0.22,0.689,0.839,0.689c0.53,0,0.78-0.299,0.78-0.6
				c0-0.229-0.12-0.409-0.7-0.569l-0.919-0.25c-0.41-0.12-1.279-0.37-1.279-1.399c0-0.979,0.899-1.578,2.208-1.578
				c1.04,0,1.879,0.479,1.919,1.488h-1.349c-0.04-0.56-0.49-0.6-0.72-0.6c-0.399,0-0.7,0.189-0.7,0.5c0,0.34,0.25,0.41,0.69,0.529
				l0.91,0.25c0.919,0.25,1.349,0.72,1.349,1.409c0,0.87-0.75,1.739-2.319,1.739c-0.649,0-1.27-0.141-1.729-0.619
				c-0.33-0.35-0.36-0.75-0.37-0.99H126.596z"/>
		</g>
	</g>
	<g>
		<rect x="156.5" y="164.5" fill="#6600CC" stroke="#CCCCCC" stroke-miterlimit="10" width="12" height="12"/>
		<g>
			<path fill="#FFFFFF" d="M176.156,172.193c0,0.34-0.02,1.369,1.309,1.369c0.84,0,1.369-0.399,1.369-1.009
				c0-0.64-0.449-0.75-1.369-0.97c-1.719-0.43-2.658-0.939-2.658-2.189c0-1.188,0.85-2.238,2.858-2.238
				c0.749,0,1.64,0.17,2.179,0.85c0.41,0.52,0.41,1.1,0.41,1.34h-1.489c-0.021-0.25-0.101-1.1-1.169-1.1
				c-0.721,0-1.189,0.39-1.189,0.979c0,0.67,0.529,0.791,1.568,1.051c1.25,0.299,2.479,0.639,2.479,2.049
				c0,1.299-1.079,2.348-3.078,2.348c-2.768,0-2.788-1.778-2.799-2.479H176.156z"/>
			<path fill="#FFFFFF" d="M182.936,169.455l0.041,0.72c0.459-0.81,1.299-0.819,1.539-0.819c1.309,0,2.098,0.979,2.098,2.519
				c0,1.429-0.739,2.698-2.198,2.698c-0.909,0-1.279-0.479-1.409-0.649v2.519h-1.51v-6.986H182.936z M185.115,171.934
				c0-0.6-0.15-1.629-1.02-1.629c-0.48,0-1.16,0.359-1.16,1.719c0,0.301,0.01,1.58,1.1,1.58
				C184.734,173.604,185.115,172.934,185.115,171.934z"/>
			<path fill="#FFFFFF" d="M190.686,174.502c-0.051-0.31-0.051-0.539-0.051-0.689c-0.56,0.811-1.229,0.811-1.51,0.811
				c-0.729,0-1.059-0.211-1.259-0.4c-0.3-0.3-0.439-0.709-0.439-1.109s0.14-1.14,1.069-1.569c0.619-0.28,1.51-0.28,1.999-0.28
				c0-0.329-0.011-0.489-0.07-0.669c-0.13-0.37-0.52-0.42-0.659-0.42c-0.21,0-0.43,0.09-0.561,0.28
				c-0.109,0.17-0.109,0.33-0.109,0.449h-1.449c0.01-0.27,0.04-0.81,0.57-1.189c0.459-0.33,1.049-0.41,1.528-0.41
				c0.42,0,1.3,0.07,1.8,0.65c0.34,0.41,0.35,1.01,0.35,1.239l0.01,2.028c0,0.43,0.029,0.859,0.119,1.279H190.686z M188.865,172.943
				c0,0.34,0.23,0.72,0.721,0.72c0.27,0,0.489-0.13,0.629-0.29c0.26-0.32,0.28-0.709,0.28-1.25
				C189.545,172.044,188.865,172.344,188.865,172.943z"/>
			<path fill="#FFFFFF" d="M196.555,167.287h1.489v6.396c0,0.299,0.021,0.629,0.04,0.818h-1.5l-0.039-0.729
				c-0.1,0.18-0.2,0.369-0.51,0.568c-0.37,0.24-0.76,0.261-0.979,0.261c-1.35,0-2.149-0.93-2.149-2.509
				c0-1.669,0.91-2.709,2.229-2.709c0.91,0,1.29,0.51,1.42,0.689V167.287z M195.426,173.643c0.43,0,0.779-0.26,0.939-0.569
				c0.219-0.42,0.239-0.939,0.239-1.189c0-0.989-0.43-1.529-1.099-1.529c-0.99,0-1.1,1.189-1.1,1.699
				C194.406,172.894,194.686,173.643,195.426,173.643z"/>
			<path fill="#FFFFFF" d="M200.516,172.354c0,0.33,0,1.35,1.029,1.35c0.37,0,0.74-0.141,0.88-0.699h1.349
				c-0.02,0.239-0.069,0.669-0.479,1.099c-0.371,0.39-1.03,0.59-1.77,0.59c-0.43,0-1.25-0.08-1.779-0.63
				c-0.459-0.479-0.649-1.159-0.649-1.969c0-0.819,0.2-1.799,1.05-2.389c0.389-0.26,0.869-0.42,1.418-0.42
				c0.721,0,1.58,0.279,2.039,1.219c0.34,0.69,0.32,1.43,0.301,1.85H200.516z M202.395,171.424c0-0.229-0.02-1.129-0.879-1.129
				c-0.65,0-0.92,0.539-0.949,1.129H202.395z"/>
			<path fill="#FFFFFF" d="M205.916,173.043c0.02,0.32,0.22,0.689,0.84,0.689c0.529,0,0.779-0.299,0.779-0.6
				c0-0.229-0.12-0.409-0.699-0.569l-0.92-0.25c-0.41-0.12-1.279-0.37-1.279-1.399c0-0.979,0.899-1.578,2.209-1.578
				c1.039,0,1.879,0.479,1.918,1.488h-1.349c-0.04-0.56-0.489-0.6-0.72-0.6c-0.399,0-0.699,0.189-0.699,0.5
				c0,0.34,0.25,0.41,0.689,0.529l0.91,0.25c0.919,0.25,1.349,0.72,1.349,1.409c0,0.87-0.749,1.739-2.319,1.739
				c-0.648,0-1.27-0.141-1.729-0.619c-0.33-0.35-0.359-0.75-0.369-0.99H205.916z"/>
		</g>
	</g>
	<g>
		<rect x="227.5" y="164.5" fill="#EE8310" stroke="#CCCCCC" stroke-miterlimit="10" width="12" height="12"/>
		<g>
			<path fill="#FFFFFF" d="M245.493,167.297l2.389,0.01c0.399,0,1.619,0.01,2.489,0.649c0.909,0.669,1.229,1.81,1.229,2.839
				c0,2.219-1.189,3.378-2.559,3.627c-0.27,0.051-0.569,0.08-1.299,0.08h-2.249V167.297z M247.062,173.312
				c0.17,0.011,0.43,0.021,0.609,0.021c0.66,0,1.229-0.05,1.68-0.499c0.609-0.61,0.649-1.689,0.649-2.039
				c0-1.02-0.351-1.959-1.319-2.229c-0.32-0.091-0.729-0.141-1.619-0.101V173.312z"/>
			<path fill="#FFFFFF" d="M252.663,167.287h1.579v1.289h-1.579V167.287z M252.713,169.445h1.479v5.057h-1.479V169.445z"/>
			<path fill="#FFFFFF" d="M258.521,174.502c-0.05-0.31-0.05-0.539-0.05-0.689c-0.56,0.811-1.229,0.811-1.509,0.811
				c-0.73,0-1.06-0.211-1.26-0.4c-0.3-0.3-0.439-0.709-0.439-1.109s0.14-1.14,1.069-1.569c0.62-0.28,1.509-0.28,1.999-0.28
				c0-0.329-0.01-0.489-0.07-0.669c-0.13-0.37-0.52-0.42-0.66-0.42c-0.209,0-0.43,0.09-0.559,0.28c-0.11,0.17-0.11,0.33-0.11,0.449
				h-1.449c0.01-0.27,0.04-0.81,0.569-1.189c0.46-0.33,1.05-0.41,1.529-0.41c0.42,0,1.299,0.07,1.799,0.65
				c0.34,0.41,0.35,1.01,0.35,1.239l0.011,2.028c0,0.43,0.03,0.859,0.12,1.279H258.521z M256.703,172.943
				c0,0.34,0.229,0.72,0.719,0.72c0.271,0,0.49-0.13,0.63-0.29c0.261-0.32,0.28-0.709,0.28-1.25
				C257.383,172.044,256.703,172.344,256.703,172.943z"/>
			<path fill="#FFFFFF" d="M261.094,170.404c0-0.319-0.021-0.629-0.051-0.949h1.42l0.05,0.65c0.159-0.221,0.55-0.76,1.56-0.76
				c1.158,0,1.488,0.709,1.589,0.949c0.419-0.81,1.099-0.939,1.619-0.939c1.019,0,1.429,0.609,1.539,0.81
				c0.27,0.439,0.27,1.05,0.27,1.489v2.848h-1.509v-2.968c0-0.54-0.08-1.14-0.85-1.14c-0.89,0-0.92,0.83-0.92,1.579v2.528h-1.488
				v-2.998c0-0.39,0-1.109-0.82-1.109c-0.93,0-0.93,0.8-0.93,1.14v2.968h-1.479V170.404z"/>
			<path fill="#FFFFFF" d="M272.871,169.336c1.83,0,2.619,1.238,2.619,2.648c0,1.418-0.82,2.697-2.648,2.697
				c-1.439,0-2.578-0.889-2.578-2.658C270.264,170.805,270.883,169.336,272.871,169.336z M272.892,173.652
				c0.649,0,1.089-0.389,1.089-1.729c0-0.67-0.129-1.6-1.109-1.6c-1.079,0-1.089,1.25-1.089,1.709
				C271.782,173.163,272.162,173.652,272.892,173.652z"/>
			<path fill="#FFFFFF" d="M276.623,170.354c0-0.02,0-0.569-0.03-0.919h1.419l0.04,0.76c0.14-0.23,0.54-0.88,1.64-0.88
				c0.989,0,1.408,0.6,1.539,0.949c0.109,0.31,0.14,0.569,0.14,1.509v2.729h-1.509v-3.138c0-0.21,0-0.39-0.08-0.55
				c-0.11-0.22-0.34-0.43-0.72-0.43c-0.319,0-0.61,0.15-0.77,0.39c-0.091,0.13-0.181,0.38-0.181,0.77v2.958h-1.488V170.354z"/>
			<path fill="#FFFFFF" d="M286.051,167.287h1.49v6.396c0,0.299,0.02,0.629,0.039,0.818h-1.499l-0.04-0.729
				c-0.1,0.18-0.199,0.369-0.51,0.568c-0.369,0.24-0.76,0.261-0.979,0.261c-1.35,0-2.149-0.93-2.149-2.509
				c0-1.669,0.909-2.709,2.229-2.709c0.909,0,1.29,0.51,1.419,0.689V167.287z M284.922,173.643c0.43,0,0.779-0.26,0.939-0.569
				c0.22-0.42,0.24-0.939,0.24-1.189c0-0.989-0.43-1.529-1.1-1.529c-0.99,0-1.1,1.189-1.1,1.699
				C283.902,172.894,284.182,173.643,284.922,173.643z"/>
			<path fill="#FFFFFF" d="M289.853,173.043c0.021,0.32,0.22,0.689,0.839,0.689c0.53,0,0.78-0.299,0.78-0.6
				c0-0.229-0.12-0.409-0.7-0.569l-0.919-0.25c-0.409-0.12-1.279-0.37-1.279-1.399c0-0.979,0.899-1.578,2.208-1.578
				c1.04,0,1.879,0.479,1.92,1.488h-1.35c-0.04-0.56-0.49-0.6-0.72-0.6c-0.399,0-0.699,0.189-0.699,0.5
				c0,0.34,0.249,0.41,0.689,0.529l0.909,0.25c0.92,0.25,1.35,0.72,1.35,1.409c0,0.87-0.75,1.739-2.318,1.739
				c-0.65,0-1.27-0.141-1.729-0.619c-0.33-0.35-0.36-0.75-0.37-0.99H289.853z"/>
		</g>
	</g>
</g>
<g id="Layer_13">
	<rect x="0.5" y="0.5" fill="none" stroke="#000000" stroke-miterlimit="10" width="301" height="182"/>
</g>
</svg>
